<?xml version="1.0" encoding="UTF-8"?>
<svg version="1.1" xmlns="http://www.w3.org/2000/svg" width="1024" height="1024">
<path d="M0 0 C2.41198203 2.33738465 4.77713745 4.70805848 7.1171875 7.1171875 C8.72556137 8.72556137 10.34381271 10.15433622 12.125 11.5625 C15.20734982 14.17579659 17.71103979 16.99716909 20.3203125 20.0703125 C21.79505487 21.76455141 23.31442432 23.32528367 24.9375 24.875 C27 27 27 27 27 29 C27.66 29 28.32 29 29 29 C45.97939977 46.66830143 59.76507076 68.84204593 72 90 C72.4021875 90.69464355 72.804375 91.38928711 73.21875 92.10498047 C122.26192322 177.33665142 134.56280759 281.32452708 109.15917969 376.13818359 C107.27597225 382.8154991 105.17311524 389.41228661 103 396 C102.73638672 396.82306641 102.47277344 397.64613281 102.20117188 398.49414062 C88.9615914 439.73924972 66.97599826 478.22332992 40 512 C39.26394531 512.92941406 38.52789063 513.85882812 37.76953125 514.81640625 C33.23716256 520.45579597 28.4892729 525.84313948 23.54125977 531.11743164 C20.96884551 533.83925415 20.96884551 533.83925415 19 537 C18.34 537 17.68 537 17 537 C16.77570312 537.55042969 16.55140625 538.10085938 16.3203125 538.66796875 C11.81609326 546.62364593 2.91180094 553.12016934 -4 559 C-5.4540625 560.28777344 -5.4540625 560.28777344 -6.9375 561.6015625 C-26.75450272 579.06774492 -48.81173989 593.90437917 -71.83789062 606.78759766 C-73.74905027 607.85928 -75.64861381 608.94869619 -77.546875 610.04296875 C-96.2160523 620.47447911 -116.64020304 628.54859039 -137 635 C-137.89509277 635.28681641 -138.79018555 635.57363281 -139.71240234 635.86914062 C-172.27519991 646.18228472 -206.7904137 652.35070773 -241 653 C-241.93360352 653.02578125 -242.86720703 653.0515625 -243.82910156 653.078125 C-301.97671688 654.56575187 -360.37066638 642.93081356 -413 618 C-414.08522949 617.48856445 -414.08522949 617.48856445 -415.19238281 616.96679688 C-419.852128 614.75038852 -424.43955124 612.41347029 -429 610 C-429.77408203 609.59168945 -430.54816406 609.18337891 -431.34570312 608.76269531 C-453.49094275 597.01055988 -473.82269866 583.0871025 -493.31884766 567.35644531 C-494.89826381 566.0820863 -496.48597003 564.8180213 -498.07421875 563.5546875 C-506.66070882 556.55640348 -514.46911965 548.74311634 -522.3125 540.9375 C-522.87239624 540.38287079 -523.43229248 539.82824158 -524.00915527 539.25680542 C-531.1567836 532.16116699 -537.74214688 524.9019417 -544 517 C-544.89868971 515.92572313 -545.80243931 514.8556221 -546.71484375 513.79296875 C-608.88232511 440.91825861 -636.1150218 341.22276334 -629.0546875 246.73730469 C-622.21292948 167.23518794 -590.39246259 87.05177969 -536 28 C-534.7446624 26.58806093 -533.49430126 25.17167466 -532.25 23.75 C-531.68667969 23.10675781 -531.12335938 22.46351563 -530.54296875 21.80078125 C-529.17994148 20.21000765 -527.86706017 18.57656277 -526.5625 16.9375 C-523.96765245 13.96291866 -521.22564845 11.52634718 -518.2265625 8.9765625 C-515.76553431 6.79186028 -513.4849599 4.48080809 -511.1875 2.125 C-507.00041713 -2.10026295 -502.64219084 -5.91985168 -497.98828125 -9.62109375 C-495.93512906 -11.25556393 -493.91919581 -12.90306379 -491.91796875 -14.59765625 C-475.73937273 -28.13761161 -457.49554 -40.20679172 -438.82617188 -50.02880859 C-436.9250134 -51.03987924 -435.04845086 -52.08860299 -433.171875 -53.14453125 C-339.57903172 -105.15454469 -222.66304692 -110.6799335 0 0 Z " fill="#24272C" transform="translate(766,179)"/>
<path d="M0 0 C2.41198203 2.33738465 4.77713745 4.70805848 7.1171875 7.1171875 C8.72556137 8.72556137 10.34381271 10.15433622 12.125 11.5625 C15.20734982 14.17579659 17.71103979 16.99716909 20.3203125 20.0703125 C21.79505487 21.76455141 23.31442432 23.32528367 24.9375 24.875 C27 27 27 27 27 29 C27.66 29 28.32 29 29 29 C52.74582493 53.70925936 72.03233166 86.63939202 86.625 117.5 C86.96797119 118.22429199 87.31094238 118.94858398 87.66430664 119.69482422 C90 124.73855903 90 124.73855903 90 127 C-137.04 127 -364.08 127 -598 127 C-595.47501913 119.42505738 -592.68119231 112.82133949 -589.125 105.75 C-588.55346191 104.61191895 -587.98192383 103.47383789 -587.39306641 102.30126953 C-581.86676262 91.46801977 -575.68258909 81.15395317 -569 71 C-568.52852539 70.28166992 -568.05705078 69.56333984 -567.57128906 68.82324219 C-558.06624867 54.44762751 -547.75871297 40.61179607 -536 28 C-534.74387249 26.58876362 -533.49354413 25.17233696 -532.25 23.75 C-531.68667969 23.10675781 -531.12335938 22.46351563 -530.54296875 21.80078125 C-529.17994148 20.21000765 -527.86706017 18.57656277 -526.5625 16.9375 C-523.96765245 13.96291866 -521.22564845 11.52634718 -518.2265625 8.9765625 C-515.76553431 6.79186028 -513.4849599 4.48080809 -511.1875 2.125 C-507.00041713 -2.10026295 -502.64219084 -5.91985168 -497.98828125 -9.62109375 C-495.93512906 -11.25556393 -493.91919581 -12.90306379 -491.91796875 -14.59765625 C-475.73937273 -28.13761161 -457.49554 -40.20679172 -438.82617188 -50.02880859 C-436.9250134 -51.03987924 -435.04845086 -52.08860299 -433.171875 -53.14453125 C-339.57903172 -105.15454469 -222.66304692 -110.6799335 0 0 Z " fill="#FEFEFD" transform="translate(766,179)"/>
<path d="M0 0 C0.64980835 -0.00511093 1.2996167 -0.01022186 1.96911621 -0.01548767 C4.09555537 -0.02927186 6.22166629 -0.02843532 8.34814453 -0.02612305 C9.8411572 -0.03001639 11.33416878 -0.03435236 12.82717896 -0.03910828 C15.94895017 -0.04654668 19.07060825 -0.04629677 22.19238281 -0.04101562 C26.17215719 -0.03522694 30.15146527 -0.05214873 34.13116264 -0.0753603 C37.21288717 -0.09016811 40.29450123 -0.09095977 43.37625504 -0.08785057 C44.84251961 -0.08836034 46.30879093 -0.09353271 47.7750206 -0.10366249 C59.47226599 -0.17456234 69.33891529 0.79388722 78.10595703 9.2746582 C85.06996884 17.37565153 88.55269024 26.1522836 90.21142578 36.6262207 C90.46702271 38.22071045 90.46702271 38.22071045 90.7277832 39.84741211 C90.85258057 40.64840332 90.97737793 41.44939453 91.10595703 42.2746582 C91.66004242 42.27608322 92.21412781 42.27750824 92.78500366 42.27897644 C98.59381529 42.29878537 104.40159182 42.35329594 110.20996094 42.42724609 C112.3726456 42.45032893 114.53544113 42.46479881 116.69824219 42.47021484 C119.82182127 42.4795755 122.94367981 42.52072203 126.06689453 42.56762695 C127.02147552 42.56369431 127.97605652 42.55976166 128.95956421 42.55570984 C137.63369869 42.74087284 145.36946979 45.74882537 151.48095703 52.0871582 C152.08681641 52.69172852 152.69267578 53.29629883 153.31689453 53.91918945 C160.04278115 62.77445065 159.69663711 71.07556713 159.63720703 81.72387695 C159.6399049 83.42682618 159.64378978 85.12977391 159.64880371 86.8327179 C159.65468011 90.38911714 159.646193 93.94511274 159.62744141 97.50146484 C159.60460037 102.05458101 159.61781877 106.6067566 159.64173126 111.15983868 C159.65619527 114.67121961 159.65158145 118.18237795 159.64122009 121.69376564 C159.63855716 123.37265955 159.6418073 125.05157386 159.65113831 126.73044395 C159.66132011 129.07604852 159.64578458 131.42013342 159.62353516 133.765625 C159.63163208 134.45508713 159.639729 135.14454926 159.64807129 135.85490417 C159.56532713 140.5733896 158.42600051 142.95376743 155.10595703 146.2746582 C152.66100831 147.49713256 151.08559234 147.40329816 148.35151958 147.40887928 C147.34188646 147.41333712 146.33225334 147.41779497 145.29202527 147.4223879 C144.17445255 147.42220354 143.05687984 147.42201917 141.90544128 147.42182922 C140.13416594 147.42734426 140.13416594 147.42734426 138.32710725 147.4329707 C135.03885197 147.44210964 131.75064664 147.44670992 128.46238339 147.44936001 C124.91952494 147.45325897 121.37668099 147.46283797 117.83383179 147.47157288 C109.26945669 147.49135478 100.70508039 147.50140827 92.14068815 147.51030067 C88.1062711 147.51468305 84.07185536 147.52005021 80.03743935 147.52528954 C66.6216913 147.54230788 53.20594407 147.55679951 39.79018688 147.56403828 C36.3069833 147.56594816 32.82377973 147.56786849 29.34057617 147.56982422 C28.47484831 147.57030796 27.60912045 147.5707917 26.71715841 147.5712901 C12.70983081 147.57958073 -1.29741113 147.60489854 -15.30470137 147.6374049 C-29.69101704 147.67051791 -44.07728928 147.6884911 -58.46364325 147.69168252 C-66.53870588 147.69384431 -74.61364379 147.70254372 -82.6886692 147.72814369 C-89.57014119 147.74990919 -96.4514582 147.75787271 -103.3329607 147.74817691 C-106.84044282 147.74364827 -110.3476056 147.74543345 -113.85504341 147.76493835 C-117.66919782 147.78269155 -121.48255135 147.77553281 -125.29670715 147.7624054 C-126.38974193 147.77337464 -127.48277671 147.78434389 -128.60893375 147.79564553 C-144.37019592 147.66539097 -158.42322532 141.3547705 -169.78857422 130.56762695 C-173.72609227 126.27945795 -176.00569481 122.13414667 -176.39404297 116.2746582 C-175.99525775 109.90655667 -173.08984296 105.1002436 -168.51904297 100.7746582 C-159.36404203 93.30745074 -146.47540612 85.80974922 -134.89404297 83.2746582 C-134.81927734 82.54762695 -134.74451172 81.8205957 -134.66748047 81.0715332 C-133.09368604 69.03663466 -128.58055441 58.88928328 -118.89404297 51.2746582 C-115.99551199 49.3355359 -113.07596305 47.69947368 -109.89404297 46.2746582 C-108.81896484 45.76741211 -107.74388672 45.26016602 -106.63623047 44.73754883 C-100.46726018 42.45370116 -94.04825906 42.79451753 -87.55029297 42.76293945 C-86.17165555 42.74606747 -84.79303327 42.72791389 -83.41442871 42.70854187 C-79.81096126 42.66130845 -76.20755523 42.63132782 -72.60388184 42.60510254 C-68.91662468 42.57516127 -65.22957869 42.52867808 -61.54248047 42.48364258 C-54.32644004 42.39791346 -47.11038374 42.33043442 -39.89404297 42.2746582 C-39.70865967 41.33726807 -39.52327637 40.39987793 -39.33227539 39.43408203 C-38.95099487 37.57046021 -38.95099487 37.57046021 -38.56201172 35.66918945 C-38.31475342 34.44304932 -38.06749512 33.21690918 -37.81274414 31.95361328 C-35.22614906 21.59554756 -29.44907881 11.88578686 -20.62841797 5.6809082 C-14.06056997 1.83849373 -7.64046229 0.03020846 0 0 Z " fill="#F7AF36" transform="translate(497.89404296875,334.725341796875)"/>
<path d="M0 0 C1.96482878 -0.04949994 3.93150659 -0.04379651 5.89635456 0.0049361 C6.98601514 -0.00780073 8.07567573 -0.02053756 9.19835633 -0.03366035 C12.87047159 -0.06427971 16.53833066 -0.0232668 20.21030223 0.01712596 C22.86086918 0.00990393 25.51114977 -0.00127991 28.16165042 -0.01731801 C33.93455031 -0.04421871 39.70645799 -0.03390216 45.47930324 0.00069988 C54.06330624 0.05200985 62.64660271 0.04612052 71.23070705 0.02861472 C85.67089557 0.0008715 100.11066608 0.02027442 114.55079067 0.06702602 C128.85297835 0.1132935 143.15498114 0.14063848 157.45724666 0.14206111 C158.34628836 0.14216801 159.23533005 0.14227491 160.15131241 0.14238505 C163.76001973 0.14276225 167.36872702 0.14300539 170.97743436 0.1430697 C204.84148985 0.1437516 238.70526363 0.19790094 272.56921141 0.27945389 C302.67240975 0.35172023 332.77544427 0.38998022 362.87872875 0.39551342 C363.83599123 0.39569642 364.79325372 0.39587943 365.77952416 0.39606799 C368.67547914 0.39662085 371.57143412 0.39716382 374.46738911 0.39770603 C378.31359923 0.39843208 382.15980935 0.39917888 386.00601947 0.39994037 C386.95502442 0.40012083 387.90402938 0.40030128 388.88179205 0.4004872 C418.51572722 0.40644681 448.14963184 0.44137378 477.78353817 0.4813156 C487.6211663 0.49455681 497.45878959 0.50593155 507.29642522 0.51169622 C508.62631599 0.51247975 508.62631599 0.51247975 509.98307325 0.5132791 C511.3103186 0.51405648 511.3103186 0.51405648 512.66437699 0.51484956 C529.68530347 0.52483118 546.70610872 0.54719739 563.72696854 0.59745015 C572.26229299 0.62230925 580.79746954 0.63634264 589.33283103 0.6347654 C595.02718031 0.63484075 600.72137114 0.64940791 606.41565801 0.67601871 C609.66469817 0.69081137 612.91335447 0.69705789 616.16243125 0.6902671 C619.65567895 0.68399296 623.14795831 0.7019981 626.64110553 0.7264632 C627.65887217 0.71881362 628.6766388 0.71116404 629.72524685 0.70328265 C636.51860535 0.78787087 636.51860535 0.78787087 639.7032268 3.12789607 C641.30974791 5.49214719 642.77425473 7.84203439 644.13117015 10.35986888 C644.66975658 11.35421947 645.20834301 12.34857006 645.76325023 13.37305248 C646.60085887 14.95013988 646.60085887 14.95013988 647.4553889 16.55908763 C648.31716747 18.16711254 648.31716747 18.16711254 649.1963557 19.80762279 C661.1428889 42.26244611 661.1428889 42.26244611 661.1428889 46.24658763 C434.1028889 46.24658763 207.0628889 46.24658763 -26.8571111 46.24658763 C-25.01005837 40.70542946 -23.47655173 36.1067266 -20.93132985 31.03174388 C-20.38154469 29.9328181 -19.83175953 28.83389232 -19.26531422 27.70166576 C-18.69748219 26.58211498 -18.12965016 25.4625642 -17.5446111 24.30908763 C-16.98838063 23.19340404 -16.43215016 22.07772045 -15.85906422 20.92822826 C-14.22407418 17.67918518 -12.58702675 14.44634208 -10.8571111 11.24658763 C-10.48986825 10.43021933 -10.12262541 9.61385103 -9.744254 8.77274429 C-7.31251546 3.90691695 -5.66836847 0.7019334 0 0 Z " fill="#FEAB33" transform="translate(194.85711109638214,259.7534123659134)"/>
<path d="M0 0 C1.51211351 -0.00391162 1.51211351 -0.00391162 3.05477476 -0.00790226 C4.17566386 -0.00567154 5.29655295 -0.00344082 6.45140839 -0.0011425 C7.63170388 -0.00270249 8.81199937 -0.00426248 10.02806139 -0.00586975 C13.31894623 -0.00918301 16.60977451 -0.00797058 19.90065598 -0.00488353 C23.44397829 -0.00263128 26.98729546 -0.00610816 30.53061676 -0.00886345 C37.47780823 -0.01332203 44.42498892 -0.01234429 51.37218082 -0.00945081 C57.01574281 -0.00719712 62.65930177 -0.0068841 68.30286407 -0.00797462 C69.50534685 -0.00820447 69.50534685 -0.00820447 70.73212221 -0.00843897 C72.36040795 -0.00875868 73.98869369 -0.00908289 75.61697942 -0.00941156 C90.9038217 -0.01226661 106.190658 -0.00897894 121.47749931 -0.00361119 C134.60890136 0.00085687 147.74029458 0.00008094 160.87169647 -0.00452995 C176.10192686 -0.00987528 191.33215199 -0.01199191 206.56238317 -0.00891769 C208.18485101 -0.00859912 209.80731885 -0.00828475 211.42978668 -0.00797462 C212.22817885 -0.00782035 213.02657102 -0.00766607 213.84915689 -0.00750712 C219.48928549 -0.00664184 225.12941078 -0.00810508 230.76953888 -0.01045418 C237.63816579 -0.01325191 244.50678127 -0.01251448 251.37540686 -0.00717343 C254.88330568 -0.00453606 258.39118539 -0.00353196 261.89908409 -0.00682259 C265.69314777 -0.01032796 269.48717983 -0.0061571 273.28124237 -0.0011425 C274.96257601 -0.00448858 274.96257601 -0.00448858 276.677876 -0.00790226 C277.68595167 -0.00529452 278.69402734 -0.00268677 279.73265076 0 C280.60964237 0.00016235 281.48663398 0.0003247 282.39020109 0.00049198 C284.36632538 0.12584114 284.36632538 0.12584114 285.36632538 1.12584114 C285.50486782 3.98937016 285.57954939 6.82695967 285.60460663 9.69224739 C285.61267838 10.55970085 285.62075012 11.42715431 285.62906647 12.32089424 C285.6429304 14.16446612 285.65364217 16.00806392 285.66149139 17.85167122 C285.6786067 20.6525546 285.72245879 23.45222751 285.766716 26.25279427 C285.77685133 28.0451033 285.7853648 29.83742238 285.79210663 31.62974739 C285.80961472 32.46027122 285.8271228 33.29079506 285.84516144 34.14648628 C285.82050793 40.86272161 284.04919407 46.14298924 279.51476288 51.18443489 C278.9295285 51.63947395 278.34429413 52.09451302 277.74132538 52.56334114 C277.15093475 53.03642708 276.56054413 53.50951302 275.95226288 53.99693489 C271.75470807 56.98484952 267.34547949 56.88477204 262.36632538 56.12584114 C257.38264742 53.78640822 253.37839369 50.77141359 250.36632538 46.12584114 C250.36632538 45.46584114 250.36632538 44.80584114 250.36632538 44.12584114 C249.72695038 44.78584114 249.08757538 45.44584114 248.42882538 46.12584114 C237.59487923 56.86797418 229.68654957 62.40872979 214.10240936 62.44273567 C204.91204939 62.26150155 198.10366118 58.13979983 191.36632538 52.12584114 C189.6944698 50.31682668 188.11993643 48.47608082 186.59288788 46.54380989 C185.4020006 44.98372563 185.4020006 44.98372563 183.36632538 44.12584114 C183.1214035 44.86705208 182.87648163 45.60826302 182.62413788 46.37193489 C179.28501311 53.68275154 171.48005371 58.05957893 164.36632538 61.12584114 C156.179795 63.8546846 145.64678415 63.32256833 137.86632538 59.68834114 C131.94702823 56.26739562 125.48744109 51.36807256 122.36632538 45.12584114 C118.97787742 46.25532379 118.30137062 47.15985033 116.11632538 49.87584114 C109.99814129 57.04578854 103.2197168 61.62113231 93.65148163 62.44615364 C80.79970321 62.97602916 71.92706546 59.81034231 62.36632538 51.12584114 C58.36632538 46.73559724 58.36632538 46.73559724 58.36632538 44.12584114 C57.68570038 44.80646614 57.00507538 45.48709114 56.30382538 46.18834114 C55.842341 46.6433802 55.38085663 47.09841927 54.90538788 47.56724739 C53.85299244 48.6329981 52.82768432 49.72600212 51.82726288 50.84068489 C45.78901384 57.37973658 38.22008743 61.67611887 29.26476288 62.36412239 C18.49567793 62.59096564 10.60547233 60.60124377 2.12413788 53.83677864 C-2.27889055 49.5511643 -5.35783547 44.37231233 -5.76065826 38.17096138 C-5.76185165 37.14956314 -5.76185165 37.14956314 -5.76306915 36.10753059 C-5.76622131 35.33025108 -5.76937347 34.55297157 -5.77262115 33.75213814 C-5.77059692 32.92284294 -5.76857269 32.09354774 -5.76648712 31.23912239 C-5.76744385 30.3815081 -5.76840057 29.52389381 -5.76938629 28.64029121 C-5.77006556 26.8323325 -5.76822893 25.02437132 -5.76404572 23.21641731 C-5.7586742 20.43812334 -5.76400932 17.6599896 -5.77039337 14.88170052 C-5.76973293 13.12584078 -5.76845248 11.36998115 -5.76648712 9.61412239 C-5.76952347 8.36107056 -5.76952347 8.36107056 -5.77262115 7.08270454 C-5.74354874 0.00106327 -5.74354874 0.00106327 0 0 Z " fill="#F8AF37" transform="translate(371.63367462158203,498.87415885925293)"/>
<path d="M0 0 C32 0 32 0 41 4 C46.18066372 9.27485761 49.27693155 13.17911549 49.375 20.75 C49.24949392 27.19003086 48.02765124 31.97973328 43.3984375 36.59765625 C41.98660906 37.79871409 40.4990659 38.90977025 39 40 C39.68935508 43.47637019 41.06400955 46.26523967 42.72265625 49.38671875 C43.52993164 50.9171582 43.52993164 50.9171582 44.35351562 52.47851562 C44.91748047 53.53748047 45.48144531 54.59644531 46.0625 55.6875 C47.18013677 57.79464492 48.29611798 59.9026691 49.41015625 62.01171875 C49.90652588 62.94459717 50.40289551 63.87747559 50.91430664 64.83862305 C52 67 52 67 52 68 C46.39 68 40.78 68 35 68 C32.99491947 64.37772653 30.99574934 60.75240928 29 57.125 C28.42765625 56.09246094 27.8553125 55.05992187 27.265625 53.99609375 C26.72421875 53.00996094 26.1828125 52.02382813 25.625 51.0078125 C25.12226563 50.09660645 24.61953125 49.18540039 24.1015625 48.24658203 C23 46 23 46 23 44 C20.03 44 17.06 44 14 44 C14 51.92 14 59.84 14 68 C9.38 68 4.76 68 0 68 C0 45.56 0 23.12 0 0 Z " fill="#FDFDFD" transform="translate(472,590)"/>
<path d="M0 0 C4.62 0 9.24 0 14 0 C14.65484375 1.20011719 15.3096875 2.40023437 15.984375 3.63671875 C22.84487545 16.17684506 29.88102745 28.6046125 37 41 C37.33 27.47 37.66 13.94 38 0 C42.62 0 47.24 0 52 0 C52 22.44 52 44.88 52 68 C47.71 68 43.42 68 39 68 C36.09623028 64.35876496 34.20837119 61.52809949 32.22998047 57.44677734 C30.15232791 53.31374162 27.83483383 49.31555601 25.55639648 45.29077148 C23.14028779 41.01776216 20.762096 36.72414339 18.38525391 32.42919922 C17.32877706 30.57654772 16.18301582 28.77452373 15 27 C14.67 40.53 14.34 54.06 14 68 C9.38 68 4.76 68 0 68 C0 45.56 0 23.12 0 0 Z " fill="#FCFCFC" transform="translate(523,677)"/>
<path d="M0 0 C35.45614035 0 35.45614035 0 42.0234375 5.78125 C42.46945312 6.3484375 42.91546875 6.915625 43.375 7.5 C43.83648438 8.0671875 44.29796875 8.634375 44.7734375 9.21875 C49.19399409 15.63841179 48.61801598 22.48080559 48 30 C46.55834629 35.95822704 43.05266791 39.44742817 38.05078125 42.8125 C30.79575913 47.01350329 23.13840413 46.15501722 15 46 C15 53.26 15 60.52 15 68 C10.05 68 5.1 68 0 68 C0 45.56 0 23.12 0 0 Z " fill="#FBFBFB" transform="translate(572,590)"/>
<path d="M0 0 C30 0 30 0 40 5 C42.25390625 7.31640625 42.25390625 7.31640625 43.5625 9.5625 C44.24505859 10.67818359 44.24505859 10.67818359 44.94140625 11.81640625 C47.90443984 17.92834639 47.70852211 24.30101487 45.75 30.6875 C43.1759693 37.62308273 39.46743892 40.76628054 33 44 C29.17014656 45.33699838 25.2530049 45.1113066 21.25 45.0625 C18.8575 45.041875 16.465 45.02125 14 45 C14 52.59 14 60.18 14 68 C9.38 68 4.76 68 0 68 C0 45.56 0 23.12 0 0 Z " fill="#FDFDFD" transform="translate(412,677)"/>
<path d="M0 0 C5.70051034 -1.29029515 11.47375093 -2.40636369 17 0 C22.84750721 5.79125479 26.47787213 13.64850076 30 21 C33.55944071 16.86092559 36.13828729 12.44728261 38.75 7.6875 C39.36681641 6.57665039 39.36681641 6.57665039 39.99609375 5.44335938 C41.00154785 3.63120373 42.001353 1.8159158 43 0 C48.61 0 54.22 0 60 0 C55.54222018 8.35183262 50.34974366 16.10876086 45 23.91210938 C44.34257812 24.89630859 43.68515625 25.88050781 43.0078125 26.89453125 C42.40598145 27.77987549 41.80415039 28.66521973 41.18408203 29.57739258 C39.85401199 31.83353536 39.85401199 31.83353536 40.0324707 33.88891602 C41.50886431 37.11030776 43.47281027 39.97175605 45.47265625 42.8828125 C45.9151622 43.53829071 46.35766815 44.19376892 46.81358337 44.86911011 C48.22441839 46.95817465 49.64268607 49.04202937 51.0625 51.125 C52.48545191 53.21538811 53.90662574 55.3068727 55.3221283 57.40231323 C56.20239425 58.7052502 57.08701932 60.00525455 57.97633362 61.30203247 C61 65.77495347 61 65.77495347 61 68 C55.32611902 69.14956593 49.52323539 70.20470354 44 68 C38.50499364 62.88014924 35.20960724 55.69276055 32 49 C31.67 48.34 31.34 47.68 31 47 C30.34 47 29.68 47 29 47 C27.59141764 48.89164293 27.59141764 48.89164293 26.21484375 51.33984375 C25.68439453 52.23767578 25.15394531 53.13550781 24.60742188 54.06054688 C24.05634766 55.00994141 23.50527344 55.95933594 22.9375 56.9375 C21.84354098 58.80142321 20.74854409 60.66473781 19.65234375 62.52734375 C18.92519165 63.77632446 18.92519165 63.77632446 18.18334961 65.05053711 C17 67 17 67 16 68 C13.13732433 68.07325168 10.299281 68.09238205 7.4375 68.0625 C6.63119141 68.05798828 5.82488281 68.05347656 4.99414062 68.04882812 C2.99606244 68.03700518 0.99802217 68.01906914 -1 68 C2.42398977 62.50359537 5.93043427 57.08206893 9.58203125 51.734375 C10.2147998 50.80262451 10.84756836 49.87087402 11.49951172 48.91088867 C12.7839445 47.02307345 14.07586844 45.14033183 15.37548828 43.26293945 C15.97216309 42.383396 16.56883789 41.50385254 17.18359375 40.59765625 C17.99654907 39.41441772 17.99654907 39.41441772 18.82592773 38.20727539 C20.31307316 35.82810094 20.31307316 35.82810094 20 32 C18.61503076 29.60392954 17.19955804 27.38213705 15.625 25.1171875 C15.1810791 24.46170929 14.7371582 23.80623108 14.27978516 23.13088989 C12.86182744 21.03955801 11.43179932 18.95687465 10 16.875 C8.56983999 14.78495073 7.14239054 12.69317767 5.72021484 10.59768677 C4.8349478 9.29434794 3.94476737 7.99433068 3.04931641 6.69796753 C0 2.22346383 0 2.22346383 0 0 Z " fill="#FBFBFB" transform="translate(340,677)"/>
<path d="M0 0 C12.87 0 25.74 0 39 0 C39 4.29 39 8.58 39 13 C30.75 13 22.5 13 14 13 C14 17.62 14 22.24 14 27 C21.59 27 29.18 27 37 27 C37 31.29 37 35.58 37 40 C29.41 40 21.82 40 14 40 C14 44.95 14 49.9 14 55 C22.58 55 31.16 55 40 55 C40 59.29 40 63.58 40 68 C26.8 68 13.6 68 0 68 C0 45.56 0 23.12 0 0 Z " fill="#FCFCFC" transform="translate(645,677)"/>
<path d="M0 0 C12.87 0 25.74 0 39 0 C39 4.29 39 8.58 39 13 C30.75 13 22.5 13 14 13 C14 17.62 14 22.24 14 27 C21.26 27 28.52 27 36 27 C36 31.29 36 35.58 36 40 C28.74 40 21.48 40 14 40 C14 45.28 14 50.56 14 56 C22.25 56 30.5 56 39 56 C39 59.96 39 63.92 39 68 C26.13 68 13.26 68 0 68 C0 45.56 0 23.12 0 0 Z " fill="#FDFDFD" transform="translate(288,677)"/>
<path d="M0 0 C12.87 0 25.74 0 39 0 C39 4.29 39 8.58 39 13 C30.75 13 22.5 13 14 13 C14 17.62 14 22.24 14 27 C21.26 27 28.52 27 36 27 C36 30.96 36 34.92 36 39 C28.74 39 21.48 39 14 39 C14 44.61 14 50.22 14 56 C22.25 56 30.5 56 39 56 C39 59.96 39 63.92 39 68 C26.13 68 13.26 68 0 68 C0 45.56 0 23.12 0 0 Z " fill="#FCFCFC" transform="translate(470,677)"/>
<path d="M0 0 C4.07006616 2.18039258 6.4473633 4.44078372 9.5 7.875 C7.99776416 12.08126034 5.21449966 13.61400021 1.5 15.875 C-0.99361571 14.67118552 -3.18143083 13.42071278 -5.5 11.875 C-8.13829307 11.4826996 -8.13829307 11.4826996 -11 11.5 C-11.9590625 11.47164062 -12.918125 11.44328125 -13.90625 11.4140625 C-16.62119511 11.63583981 -16.62119511 11.63583981 -18.3125 13.7421875 C-19.82001578 16.44976518 -20.11001283 17.82493584 -19.5 20.875 C-15.61667522 24.63929566 -11.62860683 26.09356942 -6.625 27.75 C0.83805778 30.39423785 5.92706324 33.05709384 10.4375 39.75 C12.75460012 46.56500034 11.69302792 52.06975662 8.90625 58.5390625 C6.57747241 62.40742083 3.35870366 64.64418695 -0.5 66.875 C-1.08523438 67.24753906 -1.67046875 67.62007812 -2.2734375 68.00390625 C-8.48258874 70.43310051 -17.287531 69.85534994 -23.59765625 67.9296875 C-28.37115198 65.64013751 -32.06151318 62.88656796 -35.5 58.875 C-33.98328036 54.32484107 -30.33108947 52.37442736 -26.5 49.875 C-25.03515625 51.14453125 -23.5703125 52.4140625 -22.10546875 53.68359375 C-17.91514838 56.79319889 -12.46592779 56.45205544 -7.5 55.875 C-4.74390705 54.45455419 -4.74390705 54.45455419 -3.5 51.875 C-2.91654524 48.83246492 -2.91654524 48.83246492 -3.5 45.875 C-5.54130023 43.34670888 -7.48466055 42.2916132 -10.51953125 41.2265625 C-11.68258789 40.80117188 -11.68258789 40.80117188 -12.86914062 40.3671875 C-14.48517982 39.79362923 -16.10235556 39.22326228 -17.72070312 38.65625 C-24.11716174 36.30717835 -28.76044407 33.77425988 -32.375 27.75 C-34.36272352 22.25382473 -34.76164734 15.99017862 -32.55078125 10.53125 C-25.58763053 -1.24240547 -12.78734689 -4.18000314 0 0 Z " fill="#FBFBFB" transform="translate(621.5,677.125)"/>
<path d="M0 0 C1.20167313 -0.01283524 2.40334625 -0.02567047 3.64143372 -0.03889465 C4.94142807 -0.04628159 6.24142242 -0.05366852 7.58081055 -0.0612793 C8.24355673 -0.06535482 8.90630291 -0.06943035 9.58913231 -0.07362938 C13.09734152 -0.09446897 16.60551187 -0.10877953 20.11376953 -0.11816406 C23.72860463 -0.12922202 27.34282305 -0.16361973 30.95744038 -0.20333576 C33.74479785 -0.2295388 36.53200919 -0.23785911 39.31947899 -0.24144554 C41.29700373 -0.24865603 43.2744284 -0.27507844 45.25178528 -0.30183411 C56.44043621 -0.27480714 56.44043621 -0.27480714 61.1550293 4.17700195 C62.58081055 6.2199707 62.58081055 6.2199707 63.4675293 8.36450195 C63.92579102 9.40670898 63.92579102 9.40670898 64.39331055 10.4699707 C65.46222501 14.26872826 65.71923542 18.25485703 66.1550293 22.17700195 C37.7750293 22.17700195 9.3950293 22.17700195 -19.8449707 22.17700195 C-18.81937262 12.94661922 -17.79629004 8.8460842 -11.2199707 2.73950195 C-7.41445415 0.23587264 -4.45469824 0.04141373 0 0 Z " fill="#23252C" transform="translate(500.844970703125,355.822998046875)"/>
<path d="M0 0 C3.67456334 2.24973265 7.13889537 4.68480528 10.0625 7.875 C10.0625 8.535 10.0625 9.195 10.0625 9.875 C8.3125 11.3828125 8.3125 11.3828125 6.0625 13 C5.32 13.53882813 4.5775 14.07765625 3.8125 14.6328125 C3.235 15.04273438 2.6575 15.45265625 2.0625 15.875 C-0.43111571 14.67118552 -2.61893083 13.42071278 -4.9375 11.875 C-7.57579307 11.4826996 -7.57579307 11.4826996 -10.4375 11.5 C-11.3965625 11.47164062 -12.355625 11.44328125 -13.34375 11.4140625 C-16.05869511 11.63583981 -16.05869511 11.63583981 -17.75 13.7421875 C-19.25751578 16.44976518 -19.54751283 17.82493584 -18.9375 20.875 C-15.05457032 24.63891268 -11.06613539 26.09453077 -6.0625 27.75 C0.63125654 30.11045384 6.20438868 32.39207197 10.203125 38.6640625 C12.48400715 44.53215021 12.07154067 52.5368766 9.625 58.3125 C6.4876497 63.63922424 0.80664674 66.96028442 -4.9375 68.875 C-15.13954428 69.740628 -23.53554369 69.25846326 -31.65625 62.4296875 C-33.0625 61.0625 -33.0625 61.0625 -34.9375 58.875 C-33.42078036 54.32484107 -29.76858947 52.37442736 -25.9375 49.875 C-24.47265625 51.14453125 -23.0078125 52.4140625 -21.54296875 53.68359375 C-17.35264838 56.79319889 -11.90342779 56.45205544 -6.9375 55.875 C-4.18140705 54.45455419 -4.18140705 54.45455419 -2.9375 51.875 C-2.35404524 48.83246492 -2.35404524 48.83246492 -2.9375 45.875 C-4.97275941 43.35502545 -6.89103234 42.3073102 -9.921875 41.26171875 C-10.69273437 40.98263672 -11.46359375 40.70355469 -12.2578125 40.41601562 C-13.86004068 39.85317502 -15.46418426 39.29575352 -17.0703125 38.74414062 C-23.46411455 36.41284569 -28.9119416 33.4518125 -32.35546875 27.37109375 C-33.73418138 21.4583597 -33.69695806 15.2873962 -31.875 9.5 C-24.39257048 -0.63748516 -12.19562951 -4.69490065 0 0 Z " fill="#FBFBFB" transform="translate(729.9375,677.125)"/>
<path d="M0 0 C17.16 0 34.32 0 52 0 C52 4.29 52 8.58 52 13 C46.06 13 40.12 13 34 13 C34 31.15 34 49.3 34 68 C29.05 68 24.1 68 19 68 C19 49.85 19 31.7 19 13 C12.73 13 6.46 13 0 13 C0 8.71 0 4.42 0 0 Z " fill="#F9F9F9" transform="translate(405,590)"/>
<path d="M0 0 C1.83498047 -0.03577148 1.83498047 -0.03577148 3.70703125 -0.07226562 C4.88652344 -0.07033203 6.06601562 -0.06839844 7.28125 -0.06640625 C8.8909668 -0.0674939 8.8909668 -0.0674939 10.53320312 -0.06860352 C14.58090266 0.79243198 16.04453174 2.26880398 18.5 5.5625 C19.09936523 8.72875977 19.09936523 8.72875977 19.05859375 12.25390625 C19.05150391 13.52814453 19.04441406 14.80238281 19.03710938 16.11523438 C19.02059326 16.77354248 19.00407715 17.43185059 18.98706055 18.11010742 C18.93755255 20.12286366 18.92557103 22.13317341 18.91992188 24.14648438 C18.78074271 35.14163862 18.78074271 35.14163862 16.5 38.5625 C12.28534426 40.66982787 6.81511802 39.83037337 2.17871094 39.85766602 C0.13929008 39.87487939 -1.89850883 39.91876835 -3.9375 39.96289062 C-5.86722656 39.97545898 -5.86722656 39.97545898 -7.8359375 39.98828125 C-9.60783447 40.01015503 -9.60783447 40.01015503 -11.41552734 40.0324707 C-14.5 39.5625 -14.5 39.5625 -16.88110352 37.9753418 C-19.06962733 34.71351389 -19.03242292 32.44411598 -19.06640625 28.53125 C-19.07260483 27.85831909 -19.07880341 27.18538818 -19.08518982 26.49206543 C-19.09227441 25.07333824 -19.08913751 23.65452768 -19.07641602 22.23583984 C-19.06253796 20.06842834 -19.09663936 17.90532883 -19.13476562 15.73828125 C-19.13571683 14.35676978 -19.13385791 12.97525292 -19.12890625 11.59375 C-19.12963135 10.34142578 -19.13035645 9.08910156 -19.13110352 7.79882812 C-18.5 4.5625 -18.5 4.5625 -16.34936523 2.15844727 C-11.19907305 -0.72626356 -5.77106109 -0.05169022 0 0 Z " fill="#22252C" transform="translate(433.5,408.4375)"/>
<path d="M0 0 C1.7015625 -0.00290039 1.7015625 -0.00290039 3.4375 -0.00585938 C4.613125 0.01798828 5.78875 0.04183594 7 0.06640625 C8.7634375 0.0499707 8.7634375 0.0499707 10.5625 0.03320312 C19.07038649 0.10571352 19.07038649 0.10571352 22.83569336 2.22485352 C25.74243301 5.45358057 25.63139871 7.35539596 25.62890625 11.66015625 C25.63131821 12.33308716 25.63373016 13.00601807 25.63621521 13.69934082 C25.63523833 15.1181428 25.62188187 16.53698363 25.59692383 17.95556641 C25.56259765 20.12274103 25.57626889 22.28583828 25.59570312 24.453125 C25.5888043 25.83465271 25.57913155 27.21616993 25.56640625 28.59765625 C25.55552979 29.84998047 25.54465332 31.10230469 25.53344727 32.39257812 C25 35.62890625 25 35.62890625 23.36303711 38.03515625 C20.28992867 40.10781374 18.31768504 40.14536861 14.625 40.16015625 C13.39265625 40.1653125 12.1603125 40.17046875 10.890625 40.17578125 C9.60671875 40.1603125 8.3228125 40.14484375 7 40.12890625 C5.07414063 40.15210938 5.07414063 40.15210938 3.109375 40.17578125 C1.87703125 40.170625 0.6446875 40.16546875 -0.625 40.16015625 C-2.31496094 40.15338867 -2.31496094 40.15338867 -4.0390625 40.14648438 C-7 39.62890625 -7 39.62890625 -9.36303711 38.01928711 C-12.45877869 33.4987195 -11.62579799 28.09204896 -11.57641602 22.78442383 C-11.56255951 20.70035747 -11.59661189 18.62079578 -11.63476562 16.53710938 C-11.63283203 15.21775391 -11.63089844 13.89839844 -11.62890625 12.5390625 C-11.62963135 11.33386963 -11.63035645 10.12867676 -11.63110352 8.88696289 C-10.35969606 2.32335267 -6.38880934 -0.00449213 0 0 Z " fill="#21242C" transform="translate(543,408.37109375)"/>
<path d="M0 0 C1.7015625 -0.00290039 1.7015625 -0.00290039 3.4375 -0.00585938 C4.613125 0.01798828 5.78875 0.04183594 7 0.06640625 C8.7634375 0.0499707 8.7634375 0.0499707 10.5625 0.03320312 C19.07038649 0.10571352 19.07038649 0.10571352 22.83569336 2.22485352 C25.74243301 5.45358057 25.63139871 7.35539596 25.62890625 11.66015625 C25.63131821 12.33308716 25.63373016 13.00601807 25.63621521 13.69934082 C25.63523833 15.1181428 25.62188187 16.53698363 25.59692383 17.95556641 C25.56259765 20.12274103 25.57626889 22.28583828 25.59570312 24.453125 C25.5888043 25.83465271 25.57913155 27.21616993 25.56640625 28.59765625 C25.55552979 29.84998047 25.54465332 31.10230469 25.53344727 32.39257812 C25 35.62890625 25 35.62890625 23.36303711 38.03515625 C20.28992867 40.10781374 18.31768504 40.14536861 14.625 40.16015625 C13.39265625 40.1653125 12.1603125 40.17046875 10.890625 40.17578125 C9.60671875 40.1603125 8.3228125 40.14484375 7 40.12890625 C5.07414062 40.15210938 5.07414062 40.15210938 3.109375 40.17578125 C1.87703125 40.170625 0.6446875 40.16546875 -0.625 40.16015625 C-2.31496094 40.15338867 -2.31496094 40.15338867 -4.0390625 40.14648438 C-7 39.62890625 -7 39.62890625 -9.36303711 38.01928711 C-12.45877869 33.4987195 -11.62579799 28.09204896 -11.57641602 22.78442383 C-11.56255951 20.70035747 -11.59661189 18.62079578 -11.63476562 16.53710938 C-11.63283203 15.21775391 -11.63089844 13.89839844 -11.62890625 12.5390625 C-11.62963135 11.33386963 -11.63035645 10.12867676 -11.63110352 8.88696289 C-10.35969606 2.32335267 -6.38880934 -0.00449213 0 0 Z " fill="#22252C" transform="translate(485,408.37109375)"/>
<path d="M0 0 C5.72958078 5.20052323 8.9643573 10.0411311 9.4375 17.8125 C9.29754777 24.08236003 6.80524637 28.11397429 2.5078125 32.53515625 C-2.44372797 36.93510024 -6.99753402 38.57018226 -13.53125 38.36328125 C-19.33037277 37.50992932 -24.05456377 35.18523155 -27.96484375 30.79296875 C-31.82362277 25.02749893 -33.29401828 19.86392303 -32 13 C-29.81029552 5.80342739 -24.99744804 1.25497069 -18.5625 -2.375 C-12.0787085 -3.95641256 -5.75436963 -3.46870185 0 0 Z " fill="#23262C" transform="translate(619,411)"/>
<path d="M0 0 C0.33 0 0.66 0 1 0 C1 337.92 1 675.84 1 1024 C0.67 1024 0.34 1024 0 1024 C0 686.08 0 348.16 0 0 Z " fill="#D7D5D3" transform="translate(0,0)"/>
<path d="M0 0 C4.62 0 9.24 0 14 0 C14 22.44 14 44.88 14 68 C9.38 68 4.76 68 0 68 C0 45.56 0 23.12 0 0 Z " fill="#FEFEFE" transform="translate(540,590)"/>
<path d="M0 0 C12.19050248 -0.49254555 12.19050248 -0.49254555 15.86328125 1.7421875 C18.74433508 4.78651861 18.90323307 6.69678495 19.13671875 10.74609375 C18.93264711 14.11036047 17.93247456 16.2678808 16 19 C11.19605568 22.21352284 5.54023584 21.12043991 0 21 C0 14.07 0 7.14 0 0 Z " fill="#232529" transform="translate(426,689)"/>
<path d="M0 0 C2.3925 -0.103125 4.785 -0.20625 7.25 -0.3125 C7.99668945 -0.35802002 8.74337891 -0.40354004 9.51269531 -0.45043945 C13.19323872 -0.52715869 14.71049118 -0.26285563 17.4609375 2.234375 C19.01577055 5.02833896 19.49532733 6.41758105 19.375 9.5625 C19.35566406 10.67818359 19.35566406 10.67818359 19.3359375 11.81640625 C18.94741272 14.34181733 18.46738234 15.89675197 17 18 C13.22429492 20.10275694 9.95222657 20.21873025 5.6875 20.125 C3.810625 20.08375 1.93375 20.0425 0 20 C0 13.4 0 6.8 0 0 Z " fill="#202226" transform="translate(587,603)"/>
<path d="M0 0 C2.371875 -0.103125 4.74375 -0.20625 7.1875 -0.3125 C7.92508545 -0.35802002 8.6626709 -0.40354004 9.42260742 -0.45043945 C13.27137546 -0.53100111 14.87833897 -0.0936226 17.94921875 2.26953125 C20.68719847 5.91495568 20.68719847 5.91495568 20.625 9 C20.63789063 9.639375 20.65078125 10.27875 20.6640625 10.9375 C19.57036854 14.33438478 17.80088318 15.84461838 15 18 C12.11628549 18.37353815 10.01710038 18.48712853 7.1875 18.3125 C4.815625 18.209375 2.44375 18.10625 0 18 C0 12.06 0 6.12 0 0 Z " fill="#212328" transform="translate(486,603)"/>
<path d="M0 0 C1.20167313 -0.01283524 2.40334625 -0.02567047 3.64143372 -0.03889465 C4.94142807 -0.04628159 6.24142242 -0.05366852 7.58081055 -0.0612793 C8.24355673 -0.06535482 8.90630291 -0.06943035 9.58913231 -0.07362938 C13.09734152 -0.09446897 16.60551187 -0.10877953 20.11376953 -0.11816406 C23.72860463 -0.12922202 27.34282305 -0.16361973 30.95744038 -0.20333576 C33.74479785 -0.2295388 36.53200919 -0.23785911 39.31947899 -0.24144554 C41.29700373 -0.24865603 43.2744284 -0.27507844 45.25178528 -0.30183411 C56.44162582 -0.27480427 56.44162582 -0.27480427 61.1550293 4.17700195 C62.5925293 6.23950195 62.5925293 6.23950195 63.1550293 8.17700195 C62.8250293 9.16700195 62.4950293 10.15700195 62.1550293 11.17700195 C61.21101888 9.38663737 60.26700846 7.59627279 59.32299805 5.8059082 C58.16483131 3.85432208 58.16483131 3.85432208 55.1550293 3.17700195 C53.05412909 3.08767887 50.95045053 3.05940926 48.84765625 3.06347656 C47.54653397 3.06355209 46.24541168 3.06362762 44.90486145 3.06370544 C43.48434409 3.0688121 42.06382713 3.0740281 40.64331055 3.0793457 C39.19028268 3.08121104 37.73725418 3.0826344 36.28422546 3.08363342 C32.46196757 3.08744949 28.63974775 3.09727202 24.81750488 3.1083374 C20.91634638 3.11857108 17.01518173 3.12313524 13.11401367 3.12817383 C5.46100154 3.1388951 -2.19197925 3.1559606 -9.8449707 3.17700195 C-7.90670362 -0.69953222 -3.84986275 0.03579079 0 0 Z " fill="#2E2A2B" transform="translate(500.844970703125,355.822998046875)"/>
<path d="M0 0 C0.33 0 0.66 0 1 0 C1.04898438 1.093125 1.09796875 2.18625 1.1484375 3.3125 C1.22286925 4.87505226 1.29849575 6.43754784 1.375 8 C1.41608887 8.83926025 1.45717773 9.67852051 1.49951172 10.54321289 C1.7570867 15.43401819 2.0982933 20.30641212 2.546875 25.18359375 C2.64178223 26.22322266 2.73668945 27.26285156 2.83447266 28.33398438 C3.02299761 30.34787451 3.22008307 32.36098857 3.42724609 34.37304688 C4.08012098 41.37034352 3.78500085 48.02025173 3 55 C2.67 55 2.34 55 2 55 C0.2461692 36.59643774 -0.26062021 18.47195824 0 0 Z " fill="#2F3337" transform="translate(136,443)"/>
<path d="M0 0 C2.475 0.495 2.475 0.495 5 1 C4.01 1.495 4.01 1.495 3 2 C3 6.95 3 11.9 3 17 C10.43120209 16.80602487 10.43120209 16.80602487 17 14 C18.2188121 10.44327821 18.2188121 10.44327821 19 7 C19.33 7 19.66 7 20 7 C20.45313729 10.89698069 20.37427545 12.50480478 17.96875 15.6875 C14.29680691 18.54775041 11.62289646 18.58623009 7.1875 18.3125 C4.815625 18.209375 2.44375 18.10625 0 18 C0 12.06 0 6.12 0 0 Z " fill="#2C2D30" transform="translate(486,603)"/>
<path d="M0 0 C0.33 0 0.66 0 1 0 C1.11941996 12.71159085 0.85785424 25.31601228 0 38 C-0.33 38 -0.66 38 -1 38 C-1.84737188 31.02431363 -2.43376668 24.02957177 -2 17 C-1.67 16.67 -1.34 16.34 -1 16 C-0.76321284 13.30764224 -0.57801975 10.63501844 -0.4375 7.9375 C-0.39431641 7.17888672 -0.35113281 6.42027344 -0.30664062 5.63867188 C-0.20026367 3.75934562 -0.09960066 1.87969756 0 0 Z " fill="#3C3F43" transform="translate(887,448)"/>
<path d="M0 0 C8.68518048 0.40871438 16.69293749 2.61864208 25 5 C25 5.66 25 6.32 25 7 C25.99 7.33 26.98 7.66 28 8 C21.53315857 7.40317702 15.68706803 5.87545517 9.5 3.9375 C8.5821875 3.65583984 7.664375 3.37417969 6.71875 3.08398438 C4.47727797 2.3951987 2.23784969 1.70044695 0 1 C0 0.67 0 0.34 0 0 Z " fill="#34363B" transform="translate(396,813)"/>
<path d="M0 0 C0.66 0.33 1.32 0.66 2 1 C2 4.63 2 8.26 2 12 C1.34 12 0.68 12 0 12 C0 14.97 0 17.94 0 21 C-0.33 21 -0.66 21 -1 21 C-1.10808032 13.90272572 -0.93854006 7.03905044 0 0 Z " fill="#363A3E" transform="translate(138,417)"/>
<path d="M0 0 C0.66 0 1.32 0 2 0 C2 4 2 4 0.390625 5.6328125 C-0.31578125 6.12523437 -1.0221875 6.61765625 -1.75 7.125 C-2.44609375 7.62257813 -3.1421875 8.12015625 -3.859375 8.6328125 C-5.85669852 9.90847533 -7.85929754 10.98750559 -10 12 C-9.61328125 11.55269531 -9.2265625 11.10539063 -8.828125 10.64453125 C-8.30734375 10.03996094 -7.7865625 9.43539062 -7.25 8.8125 C-6.7034375 8.17828125 -6.156875 7.5440625 -5.59375 6.890625 C-4.26789342 5.31779514 -3.00087924 3.69559234 -1.75 2.0625 C-1.1725 1.381875 -0.595 0.70125 0 0 Z " fill="#11152A" transform="translate(620,543)"/>
<path d="M0 0 C1.89212737 0.22179785 3.78884472 0.40614015 5.6875 0.5625 C6.68136719 0.64628906 7.67523438 0.73007812 8.69921875 0.81640625 C9.83810547 0.90728516 9.83810547 0.90728516 11 1 C11 1.33 11 1.66 11 2 C2.92905177 2.10466648 -4.9874678 2.03387512 -13 1 C-13 0.67 -13 0.34 -13 0 C-11.39679026 -0.19551338 -9.79237014 -0.38111983 -8.1875 -0.5625 C-7.29417969 -0.66691406 -6.40085937 -0.77132812 -5.48046875 -0.87890625 C-3 -1 -3 -1 0 0 Z " fill="#41454A" transform="translate(485,829)"/>
<path d="M0 0 C-2.78230428 1.85486952 -4.84363607 2.72462112 -8 3.6875 C-9.299375 4.09548828 -9.299375 4.09548828 -10.625 4.51171875 C-13 5 -13 5 -16 4 C-15.34 4 -14.68 4 -14 4 C-14 3.34 -14 2.68 -14 2 C-9.126739 0.4087311 -5.19209404 -0.21192221 0 0 Z " fill="#35383D" transform="translate(626,814)"/>
<path d="M0 0 C-1.20783751 3.62351253 -2.29653142 4.15215236 -5.4375 6.1875 C-6.24058594 6.71730469 -7.04367187 7.24710938 -7.87109375 7.79296875 C-10 9 -10 9 -12 9 C-10.79216249 5.37648747 -9.70346858 4.84784764 -6.5625 2.8125 C-5.75941406 2.28269531 -4.95632813 1.75289062 -4.12890625 1.20703125 C-2 0 -2 0 0 0 Z " fill="#2D3035" transform="translate(726,764)"/>
<path d="M0 0 C0.33 0 0.66 0 1 0 C1.55582752 1.95436127 2.09428713 3.91366982 2.625 5.875 C2.92664063 6.96554687 3.22828125 8.05609375 3.5390625 9.1796875 C3.69117188 10.11039063 3.84328125 11.04109375 4 12 C3.34 12.66 2.68 13.32 2 14 C1.30329584 12.21189234 0.61788811 10.41937948 -0.0625 8.625 C-0.44535156 7.62726562 -0.82820312 6.62953125 -1.22265625 5.6015625 C-2 3 -2 3 -1 1 C-0.67 0.67 -0.34 0.34 0 0 Z " fill="#313439" transform="translate(158,576)"/>
<path d="M0 0 C0.33 0 0.66 0 1 0 C1.144375 1.216875 1.28875 2.43375 1.4375 3.6875 C1.72035804 6.02825277 2.05225117 8.20900466 2.625 10.5 C3.17119942 14.14132944 2.55447119 17.36513331 2 21 C1.67 21 1.34 21 1 21 C0.25194283 13.97360585 -0.13794954 7.06608191 0 0 Z " fill="#44484D" transform="translate(137,477)"/>
<path d="M0 0 C3.34373475 0.55728913 6.03312999 1.35173889 9 3 C9 3.66 9 4.32 9 5 C9.66 5.33 10.32 5.66 11 6 C6.87248551 5.39301257 3.6678852 3.96189209 0 2 C0 1.34 0 0.68 0 0 Z " fill="#313438" transform="translate(351,794)"/>
<path d="M0 0 C1.72357119 2.58535679 2.44735018 4.03811614 3.1875 6.9375 C3.36667969 7.60652344 3.54585937 8.27554687 3.73046875 8.96484375 C4.03268678 11.24680888 3.68756692 12.82026659 3 15 C3 14.34 3 13.68 3 13 C2.34 13 1.68 13 1 13 C0.67 8.71 0.34 4.42 0 0 Z " fill="#383C40" transform="translate(874,358)"/>
<path d="M0 0 C3.63 0.33 7.26 0.66 11 1 C11 1.33 11 1.66 11 2 C3.08 2.495 3.08 2.495 -5 3 C-5 2.67 -5 2.34 -5 2 C-3.35 2 -1.7 2 0 2 C0 1.34 0 0.68 0 0 Z " fill="#3B3E43" transform="translate(551,827)"/>
<path d="M0 0 C2.97 0 5.94 0 9 0 C9 0.66 9 1.32 9 2 C10.32 2.33 11.64 2.66 13 3 C11.02013918 2.88652381 9.04108402 2.7589065 7.0625 2.625 C5.96035156 2.55539062 4.85820312 2.48578125 3.72265625 2.4140625 C2.82417969 2.27742187 1.92570312 2.14078125 1 2 C0.67 1.34 0.34 0.68 0 0 Z " fill="#33363C" transform="translate(448,825)"/>
<path d="M0 0 C0.66 0 1.32 0 2 0 C1.71640113 1.4391134 1.42278601 2.87625518 1.125 4.3125 C0.88136719 5.51326172 0.88136719 5.51326172 0.6328125 6.73828125 C0 9 0 9 -2 12 C-3.12377697 8.69564916 -2.89554742 6.9493138 -1.5625 3.75 C-1.27503906 3.04359375 -0.98757813 2.3371875 -0.69140625 1.609375 C-0.46324219 1.07828125 -0.23507812 0.5471875 0 0 Z " fill="#33373B" transform="translate(865,578)"/>
<path d="M0 0 C0.33 0 0.66 0 1 0 C3.13645572 6.66071488 2.93838047 12.10163546 2 19 C1.67 19 1.34 19 1 19 C0.25492456 12.62694402 -0.10349817 6.41688675 0 0 Z " fill="#171A1E" transform="translate(883,409)"/>
<path d="M0 0 C-1.45264038 0.8638129 -2.9123163 1.71580454 -4.375 2.5625 C-5.59316406 3.27599609 -5.59316406 3.27599609 -6.8359375 4.00390625 C-7.55007813 4.33261719 -8.26421875 4.66132812 -9 5 C-9.66 4.67 -10.32 4.34 -11 4 C-7.84441727 0.34616736 -4.73375145 -1.57791715 0 0 Z " fill="#313539" transform="translate(686,790)"/>
<path d="M0 0 C0.66 0 1.32 0 2 0 C4.36503039 2.99106784 5.91553181 5.02861582 6.25 8.875 C6.1675 9.57625 6.085 10.2775 6 11 C0 3.28571429 0 3.28571429 0 0 Z " fill="#313439" transform="translate(181,634)"/>
<path d="M0 0 C4.82360189 -0.19294408 8.49646738 0.24252386 13 2 C13 2.33 13 2.66 13 3 C8.07872966 3.16682272 4.49656104 3.24828052 0 1 C0 0.67 0 0.34 0 0 Z " fill="#2C2E33" transform="translate(457,826)"/>
<path d="M0 0 C2.76276177 0.52268466 5.3260876 1.10869587 8 2 C8.33 2.99 8.66 3.98 9 5 C6.03 4.01 3.06 3.02 0 2 C0 1.34 0 0.68 0 0 Z " fill="#313438" transform="translate(364,800)"/>
<path d="M0 0 C0.33 0.99 0.66 1.98 1 3 C1.66 3 2.32 3 3 3 C3.625 5.3125 3.625 5.3125 4 8 C3.01 9.485 3.01 9.485 2 11 C0.80712589 7.12315913 0 4.08378077 0 0 Z " fill="#393C40" transform="translate(147,545)"/>
<path d="M0 0 C0.33 0.99 0.66 1.98 1 3 C-0.9375 6.1875 -0.9375 6.1875 -3 9 C-3.33 8.01 -3.66 7.02 -4 6 C-2.0625 2.8125 -2.0625 2.8125 0 0 Z " fill="#2E3236" transform="translate(819,669)"/>
<path d="M0 0 C2 1 2 1 2 1 Z " fill="#686765" transform="translate(2,1023)"/>
<path d="" fill="#232629" transform="translate(0,0)"/>
<path d="M0 0 C2 1 2 1 2 1 Z " fill="#F7F7F6" transform="translate(427,89)"/>
<path d="" fill="#6A6C6B" transform="translate(0,0)"/>
<path d="" fill="#6A6968" transform="translate(0,0)"/>
<path d="" fill="#6B6D6A" transform="translate(0,0)"/>
<path d="" fill="#1F2527" transform="translate(0,0)"/>
<path d="" fill="#24272C" transform="translate(0,0)"/>
<path d="" fill="#212429" transform="translate(0,0)"/>
<path d="" fill="#212429" transform="translate(0,0)"/>
<path d="" fill="#202129" transform="translate(0,0)"/>
<path d="" fill="#6C6C6A" transform="translate(0,0)"/>
<path d="" fill="#24282A" transform="translate(0,0)"/>
<path d="" fill="#25292D" transform="translate(0,0)"/>
<path d="" fill="#232529" transform="translate(0,0)"/>
<path d="" fill="#252729" transform="translate(0,0)"/>
<path d="" fill="#1F1F24" transform="translate(0,0)"/>
<path d="" fill="#656867" transform="translate(0,0)"/>
<path d="" fill="#24272B" transform="translate(0,0)"/>
<path d="" fill="#202529" transform="translate(0,0)"/>
<path d="" fill="#1D1F23" transform="translate(0,0)"/>
<path d="" fill="#222427" transform="translate(0,0)"/>
<path d="" fill="#252328" transform="translate(0,0)"/>
<path d="" fill="#2E2B29" transform="translate(0,0)"/>
<path d="" fill="#3B3132" transform="translate(0,0)"/>
<path d="" fill="#584431" transform="translate(0,0)"/>
<path d="" fill="#EBD3B2" transform="translate(0,0)"/>
<path d="" fill="#686764" transform="translate(0,0)"/>
<path d="" fill="#F4EFE8" transform="translate(0,0)"/>
<path d="" fill="#F6F0F0" transform="translate(0,0)"/>
<path d="" fill="#F4F0F1" transform="translate(0,0)"/>
<path d="" fill="#71706C" transform="translate(0,0)"/>
<path d="" fill="#EFF1EE" transform="translate(0,0)"/>
<path d="" fill="#F6F3F1" transform="translate(0,0)"/>
<path d="" fill="#F4F5F3" transform="translate(0,0)"/>
<path d="" fill="#F6F5F3" transform="translate(0,0)"/>
<path d="" fill="#F8F7F5" transform="translate(0,0)"/>
<path d="" fill="#FCFBF9" transform="translate(0,0)"/>
<path d="" fill="#FAF9F9" transform="translate(0,0)"/>
<path d="" fill="#FBF9F8" transform="translate(0,0)"/>
<path d="" fill="#FBFBF8" transform="translate(0,0)"/>
<path d="" fill="#FAFAF9" transform="translate(0,0)"/>
<path d="" fill="#FBFBFB" transform="translate(0,0)"/>
</svg>
